<svg xmlns="http://www.w3.org/2000/svg" width="1920" height="1200" viewBox="0 0 1920 1200">
  <rect width="1920" height="1200" fill="#F5F3EF"/>
  <path d="M 0.0,1089.0 C -3.3,1105.5 -12.7,1180.7 0.0,1199.0 C 12.7,1217.3 63.8,1202.5 76.0,1199.0 C 88.2,1195.5 75.7,1186.7 73.0,1178.0 C 70.3,1169.3 65.3,1156.5 60.0,1147.0 C 54.7,1137.5 47.7,1128.8 41.0,1121.0 C 34.3,1113.2 26.8,1105.3 20.0,1100.0 C 13.2,1094.7 3.3,1072.5 0.0,1089.0 Z M 1919.0,801.0 C 1916.5,760.7 1907.5,806.7 1902.0,811.0 C 1896.5,815.3 1892.2,819.3 1886.0,827.0 C 1879.8,834.7 1870.7,846.5 1865.0,857.0 C 1859.3,867.5 1855.0,878.7 1852.0,890.0 C 1849.0,901.3 1847.5,912.8 1847.0,925.0 C 1846.5,937.2 1846.5,951.0 1849.0,963.0 C 1851.5,975.0 1857.7,988.3 1862.0,997.0 C 1866.3,1005.7 1865.8,1005.7 1875.0,1015.0 C 1884.2,1024.3 1909.7,1088.7 1917.0,1053.0 C 1924.3,1017.3 1921.5,841.3 1919.0,801.0 Z M 1919.0,576.0 C 1916.8,555.8 1912.8,590.3 1906.0,599.0 C 1899.2,607.7 1886.3,620.7 1878.0,628.0 C 1869.7,635.3 1868.8,637.7 1856.0,643.0 C 1843.2,648.3 1817.2,657.0 1801.0,660.0 C 1784.8,663.0 1779.8,663.0 1759.0,661.0 C 1738.2,659.0 1703.0,651.5 1676.0,648.0 C 1649.0,644.5 1619.0,640.7 1597.0,640.0 C 1575.0,639.3 1555.3,642.5 1544.0,644.0 C 1532.7,645.5 1536.7,645.2 1529.0,649.0 C 1521.3,652.8 1507.8,659.0 1498.0,667.0 C 1488.2,675.0 1477.3,686.7 1470.0,697.0 C 1462.7,707.3 1458.7,716.2 1454.0,729.0 C 1449.3,741.8 1444.0,760.3 1442.0,774.0 C 1440.0,787.7 1440.3,799.2 1442.0,811.0 C 1443.7,822.8 1448.5,836.3 1452.0,845.0 C 1455.5,853.7 1455.3,854.0 1463.0,863.0 C 1470.7,872.0 1485.3,887.8 1498.0,899.0 C 1510.7,910.2 1513.5,914.0 1539.0,930.0 C 1564.5,946.0 1626.8,979.0 1651.0,995.0 C 1675.2,1011.0 1675.8,1017.0 1684.0,1026.0 C 1692.2,1035.0 1695.0,1039.5 1700.0,1049.0 C 1705.0,1058.5 1711.0,1073.5 1714.0,1083.0 C 1717.0,1092.5 1717.3,1097.0 1718.0,1106.0 C 1718.7,1115.0 1719.7,1125.7 1718.0,1137.0 C 1716.3,1148.3 1711.8,1163.7 1708.0,1174.0 C 1704.2,1184.3 1661.2,1194.8 1695.0,1199.0 C 1728.8,1203.2 1875.0,1204.5 1911.0,1199.0 C 1947.0,1193.5 1911.7,1175.2 1911.0,1166.0 C 1910.3,1156.8 1911.0,1154.3 1907.0,1144.0 C 1903.0,1133.7 1896.0,1116.3 1887.0,1104.0 C 1878.0,1091.7 1879.0,1088.0 1853.0,1070.0 C 1827.0,1052.0 1761.2,1016.2 1731.0,996.0 C 1700.8,975.8 1684.5,960.2 1672.0,949.0 C 1659.5,937.8 1660.8,936.7 1656.0,929.0 C 1651.2,921.3 1646.2,910.8 1643.0,903.0 C 1639.8,895.2 1638.2,891.3 1637.0,882.0 C 1635.8,872.7 1634.7,859.3 1636.0,847.0 C 1637.3,834.7 1641.2,819.7 1645.0,808.0 C 1648.8,796.3 1653.7,786.3 1659.0,777.0 C 1664.3,767.7 1668.2,760.8 1677.0,752.0 C 1685.8,743.2 1698.7,731.0 1712.0,724.0 C 1725.3,717.0 1739.2,712.3 1757.0,710.0 C 1774.8,707.7 1792.0,708.3 1819.0,710.0 C 1846.0,711.7 1902.3,742.3 1919.0,720.0 C 1935.7,697.7 1921.2,596.2 1919.0,576.0 Z M 1738.0,49.0 C 1727.0,53.0 1726.2,54.7 1719.0,60.0 C 1711.8,65.3 1702.8,72.2 1695.0,81.0 C 1687.2,89.8 1677.8,103.5 1672.0,113.0 C 1666.2,122.5 1663.2,128.8 1660.0,138.0 C 1656.8,147.2 1654.2,158.2 1653.0,168.0 C 1651.8,177.8 1650.7,184.3 1653.0,197.0 C 1655.3,209.7 1663.0,233.2 1667.0,244.0 C 1671.0,254.8 1669.0,253.0 1677.0,262.0 C 1685.0,271.0 1691.7,280.8 1715.0,298.0 C 1738.3,315.2 1794.2,351.0 1817.0,365.0 C 1839.8,379.0 1838.8,373.0 1852.0,382.0 C 1865.2,391.0 1884.8,407.0 1896.0,419.0 C 1907.2,431.0 1915.2,461.8 1919.0,454.0 C 1922.8,446.2 1922.0,387.8 1919.0,372.0 C 1916.0,356.2 1909.3,366.8 1901.0,359.0 C 1892.7,351.2 1877.0,335.7 1869.0,325.0 C 1861.0,314.3 1856.3,303.5 1853.0,295.0 C 1849.7,286.5 1849.5,284.2 1849.0,274.0 C 1848.5,263.8 1847.3,248.5 1850.0,234.0 C 1852.7,219.5 1858.8,200.7 1865.0,187.0 C 1871.2,173.3 1880.0,161.2 1887.0,152.0 C 1894.0,142.8 1901.7,136.3 1907.0,132.0 C 1912.3,127.7 1917.0,140.5 1919.0,126.0 C 1921.0,111.5 1930.7,60.0 1919.0,45.0 C 1907.3,30.0 1871.3,37.5 1849.0,36.0 C 1826.7,34.5 1803.5,33.8 1785.0,36.0 C 1766.5,38.2 1749.0,45.0 1738.0,49.0 Z M 1487.0,0.0 C 1452.7,-6.8 1293.8,-9.5 1254.0,0.0 C 1214.2,9.5 1247.2,40.8 1248.0,57.0 C 1248.8,73.2 1254.8,86.7 1259.0,97.0 C 1263.2,107.3 1267.5,112.0 1273.0,119.0 C 1278.5,126.0 1281.7,130.2 1292.0,139.0 C 1302.3,147.8 1305.2,152.5 1335.0,172.0 C 1364.8,191.5 1442.7,235.7 1471.0,256.0 C 1499.3,276.3 1496.5,281.5 1505.0,294.0 C 1513.5,306.5 1518.5,321.5 1522.0,331.0 C 1525.5,340.5 1525.3,341.0 1526.0,351.0 C 1526.7,361.0 1528.3,376.5 1526.0,391.0 C 1523.7,405.5 1516.5,426.8 1512.0,438.0 C 1507.5,449.2 1504.8,450.7 1499.0,458.0 C 1493.2,465.3 1484.8,475.3 1477.0,482.0 C 1469.2,488.7 1461.7,493.0 1452.0,498.0 C 1442.3,503.0 1427.7,509.0 1419.0,512.0 C 1410.3,515.0 1412.7,515.3 1400.0,516.0 C 1387.3,516.7 1366.0,518.5 1343.0,516.0 C 1320.0,513.5 1284.2,504.2 1262.0,501.0 C 1239.8,497.8 1228.3,497.5 1210.0,497.0 C 1191.7,496.5 1166.3,496.5 1152.0,498.0 C 1137.7,499.5 1133.3,502.2 1124.0,506.0 C 1114.7,509.8 1104.7,514.5 1096.0,521.0 C 1087.3,527.5 1080.0,534.2 1072.0,545.0 C 1064.0,555.8 1053.8,572.8 1048.0,586.0 C 1042.2,599.2 1039.0,610.8 1037.0,624.0 C 1035.0,637.2 1035.2,654.2 1036.0,665.0 C 1036.8,675.8 1039.5,681.5 1042.0,689.0 C 1044.5,696.5 1046.5,702.7 1051.0,710.0 C 1055.5,717.3 1062.5,726.0 1069.0,733.0 C 1075.5,740.0 1077.2,742.2 1090.0,752.0 C 1102.8,761.8 1119.8,775.2 1146.0,792.0 C 1172.2,808.8 1226.7,840.0 1247.0,853.0 C 1267.3,866.0 1260.8,862.5 1268.0,870.0 C 1275.2,877.5 1283.5,887.3 1290.0,898.0 C 1296.5,908.7 1303.2,923.2 1307.0,934.0 C 1310.8,944.8 1312.5,950.3 1313.0,963.0 C 1313.5,975.7 1312.8,996.2 1310.0,1010.0 C 1307.2,1023.8 1302.3,1034.8 1296.0,1046.0 C 1289.7,1057.2 1280.8,1068.0 1272.0,1077.0 C 1263.2,1086.0 1253.5,1093.7 1243.0,1100.0 C 1232.5,1106.3 1219.7,1111.5 1209.0,1115.0 C 1198.3,1118.5 1190.8,1120.2 1179.0,1121.0 C 1167.2,1121.8 1165.3,1123.3 1138.0,1120.0 C 1110.7,1116.7 1045.7,1104.3 1015.0,1101.0 C 984.3,1097.7 970.3,1098.8 954.0,1100.0 C 937.7,1101.2 927.7,1104.7 917.0,1108.0 C 906.3,1111.3 898.8,1114.5 890.0,1120.0 C 881.2,1125.5 871.8,1133.0 864.0,1141.0 C 856.2,1149.0 848.7,1158.3 843.0,1168.0 C 837.3,1177.7 792.0,1193.8 830.0,1199.0 C 868.0,1204.2 1028.8,1200.7 1071.0,1199.0 C 1113.2,1197.3 1076.0,1192.8 1083.0,1189.0 C 1090.0,1185.2 1098.3,1179.3 1113.0,1176.0 C 1127.7,1172.7 1152.0,1169.8 1171.0,1169.0 C 1190.0,1168.2 1201.3,1168.0 1227.0,1171.0 C 1252.7,1174.0 1299.5,1184.0 1325.0,1187.0 C 1350.5,1190.0 1365.3,1190.0 1380.0,1189.0 C 1394.7,1188.0 1403.3,1184.3 1413.0,1181.0 C 1422.7,1177.7 1428.5,1175.5 1438.0,1169.0 C 1447.5,1162.5 1461.5,1150.7 1470.0,1142.0 C 1478.5,1133.3 1483.2,1129.2 1489.0,1117.0 C 1494.8,1104.8 1502.2,1082.2 1505.0,1069.0 C 1507.8,1055.8 1506.5,1048.8 1506.0,1038.0 C 1505.5,1027.2 1505.7,1016.3 1502.0,1004.0 C 1498.3,991.7 1489.3,973.7 1484.0,964.0 C 1478.7,954.3 1477.5,953.7 1470.0,946.0 C 1462.5,938.3 1460.8,931.8 1439.0,918.0 C 1417.2,904.2 1365.7,879.7 1339.0,863.0 C 1312.3,846.3 1294.2,831.5 1279.0,818.0 C 1263.8,804.5 1255.2,792.8 1248.0,782.0 C 1240.8,771.2 1238.8,763.8 1236.0,753.0 C 1233.2,742.2 1230.7,730.7 1231.0,717.0 C 1231.3,703.3 1234.3,684.8 1238.0,671.0 C 1241.7,657.2 1245.8,646.0 1253.0,634.0 C 1260.2,622.0 1271.8,607.8 1281.0,599.0 C 1290.2,590.2 1295.3,586.5 1308.0,581.0 C 1320.7,575.5 1340.8,568.7 1357.0,566.0 C 1373.2,563.3 1388.3,564.3 1405.0,565.0 C 1421.7,565.7 1432.5,566.5 1457.0,570.0 C 1481.5,573.5 1527.8,583.7 1552.0,586.0 C 1576.2,588.3 1588.7,585.8 1602.0,584.0 C 1615.3,582.2 1620.8,580.2 1632.0,575.0 C 1643.2,569.8 1659.0,560.7 1669.0,553.0 C 1679.0,545.3 1685.2,538.3 1692.0,529.0 C 1698.8,519.7 1705.2,510.0 1710.0,497.0 C 1714.8,484.0 1719.5,464.5 1721.0,451.0 C 1722.5,437.5 1721.0,427.7 1719.0,416.0 C 1717.0,404.3 1714.7,393.2 1709.0,381.0 C 1703.3,368.8 1695.5,354.8 1685.0,343.0 C 1674.5,331.2 1671.3,326.5 1646.0,310.0 C 1620.7,293.5 1557.8,259.2 1533.0,244.0 C 1508.2,228.8 1507.7,227.8 1497.0,219.0 C 1486.3,210.2 1476.3,200.0 1469.0,191.0 C 1461.7,182.0 1457.0,173.5 1453.0,165.0 C 1449.0,156.5 1446.2,153.7 1445.0,140.0 C 1443.8,126.3 1443.5,99.5 1446.0,83.0 C 1448.5,66.5 1453.2,54.8 1460.0,41.0 C 1466.8,27.2 1521.3,6.8 1487.0,0.0 Z M 1044.0,0.0 C 1018.3,-1.8 910.0,-4.0 892.0,2.0 C 874.0,8.0 910.5,20.3 936.0,36.0 C 961.5,51.7 1024.2,84.0 1045.0,96.0 C 1065.8,108.0 1052.5,99.7 1061.0,108.0 C 1069.5,116.3 1087.2,133.8 1096.0,146.0 C 1104.8,158.2 1110.0,171.0 1114.0,181.0 C 1118.0,191.0 1118.8,194.3 1120.0,206.0 C 1121.2,217.7 1122.5,237.8 1121.0,251.0 C 1119.5,264.2 1116.7,273.2 1111.0,285.0 C 1105.3,296.8 1097.8,310.2 1087.0,322.0 C 1076.2,333.8 1058.5,348.2 1046.0,356.0 C 1033.5,363.8 1020.5,366.3 1012.0,369.0 C 1003.5,371.7 1006.2,371.3 995.0,372.0 C 983.8,372.7 976.5,376.0 945.0,373.0 C 913.5,370.0 838.0,357.0 806.0,354.0 C 774.0,351.0 766.7,353.8 753.0,355.0 C 739.3,356.2 735.3,356.5 724.0,361.0 C 712.7,365.5 695.5,374.0 685.0,382.0 C 674.5,390.0 667.7,399.3 661.0,409.0 C 654.3,418.7 649.8,427.3 645.0,440.0 C 640.2,452.7 634.3,472.3 632.0,485.0 C 629.7,497.7 630.3,506.2 631.0,516.0 C 631.7,525.8 633.2,535.2 636.0,544.0 C 638.8,552.8 643.5,561.5 648.0,569.0 C 652.5,576.5 654.2,580.2 663.0,589.0 C 671.8,597.8 684.5,609.3 701.0,622.0 C 717.5,634.7 742.3,653.2 762.0,665.0 C 781.7,676.8 804.3,684.7 819.0,693.0 C 833.7,701.3 838.3,703.7 850.0,715.0 C 861.7,726.3 880.2,748.0 889.0,761.0 C 897.8,774.0 899.8,783.8 903.0,793.0 C 906.2,802.2 907.2,806.7 908.0,816.0 C 908.8,825.3 909.3,837.8 908.0,849.0 C 906.7,860.2 904.0,872.3 900.0,883.0 C 896.0,893.7 891.7,902.7 884.0,913.0 C 876.3,923.3 865.7,935.8 854.0,945.0 C 842.3,954.2 825.3,963.0 814.0,968.0 C 802.7,973.0 799.2,973.5 786.0,975.0 C 772.8,976.5 755.2,978.8 735.0,977.0 C 714.8,975.2 685.5,967.2 665.0,964.0 C 644.5,960.8 629.5,959.2 612.0,958.0 C 594.5,956.8 576.3,956.0 560.0,957.0 C 543.7,958.0 527.5,960.0 514.0,964.0 C 500.5,968.0 487.5,976.2 479.0,981.0 C 470.5,985.8 468.8,987.5 463.0,993.0 C 457.2,998.5 451.2,1002.5 444.0,1014.0 C 436.8,1025.5 425.0,1049.0 420.0,1062.0 C 415.0,1075.0 415.2,1083.5 414.0,1092.0 C 412.8,1100.5 412.0,1104.3 413.0,1113.0 C 414.0,1121.7 417.5,1135.5 420.0,1144.0 C 422.5,1152.5 422.3,1154.8 428.0,1164.0 C 433.7,1173.2 423.5,1193.2 454.0,1199.0 C 484.5,1204.8 584.7,1208.5 611.0,1199.0 C 637.3,1189.5 609.2,1158.5 612.0,1142.0 C 614.8,1125.5 622.3,1111.2 628.0,1100.0 C 633.7,1088.8 639.5,1082.5 646.0,1075.0 C 652.5,1067.5 658.8,1061.3 667.0,1055.0 C 675.2,1048.7 688.3,1040.3 695.0,1037.0 C 701.7,1033.7 703.8,1036.2 707.0,1035.0 C 710.2,1033.8 709.7,1031.3 714.0,1030.0 C 718.3,1028.7 711.5,1027.0 733.0,1027.0 C 754.5,1027.0 809.8,1026.8 843.0,1030.0 C 876.2,1033.2 909.8,1043.3 932.0,1046.0 C 954.2,1048.7 962.8,1047.7 976.0,1046.0 C 989.2,1044.3 1000.3,1040.2 1011.0,1036.0 C 1021.7,1031.8 1031.2,1027.0 1040.0,1021.0 C 1048.8,1015.0 1057.0,1007.3 1064.0,1000.0 C 1071.0,992.7 1076.5,987.3 1082.0,977.0 C 1087.5,966.7 1093.8,948.5 1097.0,938.0 C 1100.2,927.5 1100.5,925.0 1101.0,914.0 C 1101.5,903.0 1102.5,885.7 1100.0,872.0 C 1097.5,858.3 1091.5,843.3 1086.0,832.0 C 1080.5,820.7 1077.5,814.7 1067.0,804.0 C 1056.5,793.3 1050.0,785.3 1023.0,768.0 C 996.0,750.7 932.2,717.7 905.0,700.0 C 877.8,682.3 871.2,674.3 860.0,662.0 C 848.8,649.7 843.2,637.2 838.0,626.0 C 832.8,614.8 830.8,606.0 829.0,595.0 C 827.2,584.0 825.8,572.3 827.0,560.0 C 828.2,547.7 832.0,533.0 836.0,521.0 C 840.0,509.0 845.5,497.5 851.0,488.0 C 856.5,478.5 861.0,472.2 869.0,464.0 C 877.0,455.8 890.0,445.0 899.0,439.0 C 908.0,433.0 913.0,430.8 923.0,428.0 C 933.0,425.2 945.0,423.2 959.0,422.0 C 973.0,420.8 985.7,419.7 1007.0,421.0 C 1028.3,422.3 1063.0,426.5 1087.0,430.0 C 1111.0,433.5 1134.3,440.0 1151.0,442.0 C 1167.7,444.0 1173.5,444.2 1187.0,442.0 C 1200.5,439.8 1219.2,434.5 1232.0,429.0 C 1244.8,423.5 1254.5,416.8 1264.0,409.0 C 1273.5,401.2 1281.7,392.8 1289.0,382.0 C 1296.3,371.2 1303.8,353.5 1308.0,344.0 C 1312.2,334.5 1312.8,336.0 1314.0,325.0 C 1315.2,314.0 1316.0,290.5 1315.0,278.0 C 1314.0,265.5 1311.3,259.5 1308.0,250.0 C 1304.7,240.5 1300.5,230.2 1295.0,221.0 C 1289.5,211.8 1283.0,203.5 1275.0,195.0 C 1267.0,186.5 1260.7,179.2 1247.0,170.0 C 1233.3,160.8 1218.8,155.7 1193.0,140.0 C 1167.2,124.3 1113.8,91.8 1092.0,76.0 C 1070.2,60.2 1069.7,55.5 1062.0,45.0 C 1054.3,34.5 1049.0,20.5 1046.0,13.0 C 1043.0,5.5 1069.7,1.8 1044.0,0.0 Z M 800.0,0.0 C 780.2,-1.3 705.0,-4.7 689.0,0.0 C 673.0,4.7 699.7,18.2 704.0,28.0 C 708.3,37.8 713.3,44.3 715.0,59.0 C 716.7,73.7 716.2,101.2 714.0,116.0 C 711.8,130.8 706.2,139.0 702.0,148.0 C 697.8,157.0 695.0,162.3 689.0,170.0 C 683.0,177.7 673.8,187.2 666.0,194.0 C 658.2,200.8 650.5,206.2 642.0,211.0 C 633.5,215.8 625.7,219.7 615.0,223.0 C 604.3,226.3 589.7,229.7 578.0,231.0 C 566.3,232.3 569.3,234.2 545.0,231.0 C 520.7,227.8 461.5,215.7 432.0,212.0 C 402.5,208.3 384.7,208.8 368.0,209.0 C 351.3,209.2 341.5,211.2 332.0,213.0 C 322.5,214.8 319.5,215.8 311.0,220.0 C 302.5,224.2 289.0,232.0 281.0,238.0 C 273.0,244.0 270.2,246.2 263.0,256.0 C 255.8,265.8 243.8,284.8 238.0,297.0 C 232.2,309.2 230.0,315.8 228.0,329.0 C 226.0,342.2 225.3,363.5 226.0,376.0 C 226.7,388.5 228.8,395.0 232.0,404.0 C 235.2,413.0 239.5,421.8 245.0,430.0 C 250.5,438.2 255.2,444.2 265.0,453.0 C 274.8,461.8 283.2,468.5 304.0,483.0 C 324.8,497.5 370.5,527.7 390.0,540.0 C 409.5,552.3 409.8,549.7 421.0,557.0 C 432.2,564.3 448.0,576.2 457.0,584.0 C 466.0,591.8 469.7,596.7 475.0,604.0 C 480.3,611.3 485.0,619.7 489.0,628.0 C 493.0,636.3 496.8,645.8 499.0,654.0 C 501.2,662.2 501.8,666.2 502.0,677.0 C 502.2,687.8 502.7,705.7 500.0,719.0 C 497.3,732.3 494.0,743.7 486.0,757.0 C 478.0,770.3 462.7,788.7 452.0,799.0 C 441.3,809.3 434.5,813.3 422.0,819.0 C 409.5,824.7 392.3,830.7 377.0,833.0 C 361.7,835.3 359.2,836.2 330.0,833.0 C 300.8,829.8 232.5,817.3 202.0,814.0 C 171.5,810.7 159.7,812.7 147.0,813.0 C 134.3,813.3 135.0,813.8 126.0,816.0 C 117.0,818.2 101.5,822.7 93.0,826.0 C 84.5,829.3 81.8,831.0 75.0,836.0 C 68.2,841.0 60.3,846.2 52.0,856.0 C 43.7,865.8 31.7,882.2 25.0,895.0 C 18.3,907.8 14.5,919.8 12.0,933.0 C 9.5,946.2 9.3,962.2 10.0,974.0 C 10.7,985.8 12.8,994.2 16.0,1004.0 C 19.2,1013.8 23.8,1024.5 29.0,1033.0 C 34.2,1041.5 36.7,1045.5 47.0,1055.0 C 57.3,1064.5 73.2,1077.3 91.0,1090.0 C 108.8,1102.7 134.8,1119.5 154.0,1131.0 C 173.2,1142.5 193.3,1151.5 206.0,1159.0 C 218.7,1166.5 222.3,1169.3 230.0,1176.0 C 237.7,1182.7 231.7,1195.2 252.0,1199.0 C 272.3,1202.8 349.0,1207.5 352.0,1199.0 C 355.0,1190.5 287.0,1159.2 270.0,1148.0 C 253.0,1136.8 257.2,1138.8 250.0,1132.0 C 242.8,1125.2 233.8,1117.2 227.0,1107.0 C 220.2,1096.8 212.8,1081.5 209.0,1071.0 C 205.2,1060.5 204.2,1057.3 204.0,1044.0 C 203.8,1030.7 205.0,1005.3 208.0,991.0 C 211.0,976.7 214.5,970.5 222.0,958.0 C 229.5,945.5 244.3,925.5 253.0,916.0 C 261.7,906.5 266.7,905.2 274.0,901.0 C 281.3,896.8 283.8,894.2 297.0,891.0 C 310.2,887.8 331.5,883.0 353.0,882.0 C 374.5,881.0 409.5,883.5 426.0,885.0 C 442.5,886.5 433.5,888.3 452.0,891.0 C 470.5,893.7 515.0,899.7 537.0,901.0 C 559.0,902.3 571.7,900.7 584.0,899.0 C 596.3,897.3 601.2,895.7 611.0,891.0 C 620.8,886.3 634.3,877.5 643.0,871.0 C 651.7,864.5 656.3,860.2 663.0,852.0 C 669.7,843.8 678.3,830.2 683.0,822.0 C 687.7,813.8 688.8,810.3 691.0,803.0 C 693.2,795.7 695.0,788.5 696.0,778.0 C 697.0,767.5 698.2,752.2 697.0,740.0 C 695.8,727.8 693.2,716.3 689.0,705.0 C 684.8,693.7 680.7,683.3 672.0,672.0 C 663.3,660.7 660.0,653.5 637.0,637.0 C 614.0,620.5 554.2,585.0 534.0,573.0 C 513.8,561.0 527.8,572.7 516.0,565.0 C 504.2,557.3 474.5,536.5 463.0,527.0 C 451.5,517.5 452.7,516.7 447.0,508.0 C 441.3,499.3 433.2,485.7 429.0,475.0 C 424.8,464.3 423.2,454.2 422.0,444.0 C 420.8,433.8 420.7,425.2 422.0,414.0 C 423.3,402.8 425.5,389.5 430.0,377.0 C 434.5,364.5 441.8,350.0 449.0,339.0 C 456.2,328.0 461.7,320.0 473.0,311.0 C 484.3,302.0 502.7,290.7 517.0,285.0 C 531.3,279.3 544.7,278.3 559.0,277.0 C 573.3,275.7 584.8,275.8 603.0,277.0 C 621.2,278.2 647.3,280.5 668.0,284.0 C 688.7,287.5 707.0,295.5 727.0,298.0 C 747.0,300.5 769.5,301.8 788.0,299.0 C 806.5,296.2 824.0,288.7 838.0,281.0 C 852.0,273.3 863.0,262.0 872.0,253.0 C 881.0,244.0 886.3,236.7 892.0,227.0 C 897.7,217.3 903.0,205.7 906.0,195.0 C 909.0,184.3 909.8,175.8 910.0,163.0 C 910.2,150.2 908.7,129.2 907.0,118.0 C 905.3,106.8 904.3,105.0 900.0,96.0 C 895.7,87.0 890.0,75.0 881.0,64.0 C 872.0,53.0 858.2,39.3 846.0,30.0 C 833.8,20.7 815.7,13.0 808.0,8.0 C 800.3,3.0 819.8,1.3 800.0,0.0 Z M 506.0,0.0 C 471.5,-3.8 336.5,-5.0 299.0,0.0 C 261.5,5.0 288.7,20.3 281.0,30.0 C 273.3,39.7 262.2,50.7 253.0,58.0 C 243.8,65.3 238.0,69.3 226.0,74.0 C 214.0,78.7 194.8,83.8 181.0,86.0 C 167.2,88.2 173.2,90.0 143.0,87.0 C 112.8,84.0 23.8,15.0 0.0,68.0 C -23.8,121.0 -6.3,345.2 0.0,405.0 C 6.3,464.8 26.7,418.2 38.0,427.0 C 49.3,435.8 59.8,447.3 68.0,458.0 C 76.2,468.7 82.2,479.7 87.0,491.0 C 91.8,502.3 95.7,511.8 97.0,526.0 C 98.3,540.2 96.3,564.0 95.0,576.0 C 93.7,588.0 92.3,590.0 89.0,598.0 C 85.7,606.0 83.0,613.5 75.0,624.0 C 67.0,634.5 50.0,652.7 41.0,661.0 C 32.0,669.3 27.8,670.5 21.0,674.0 C 14.2,677.5 3.5,670.8 0.0,682.0 C -3.5,693.2 -22.0,728.2 0.0,741.0 C 22.0,753.8 101.8,756.5 132.0,759.0 C 162.2,761.5 167.8,758.2 181.0,756.0 C 194.2,753.8 200.3,751.7 211.0,746.0 C 221.7,740.3 235.5,730.3 245.0,722.0 C 254.5,713.7 261.3,706.5 268.0,696.0 C 274.7,685.5 281.2,669.8 285.0,659.0 C 288.8,648.2 290.2,643.2 291.0,631.0 C 291.8,618.8 291.2,597.2 290.0,586.0 C 288.8,574.8 287.2,572.0 284.0,564.0 C 280.8,556.0 275.8,546.0 271.0,538.0 C 266.2,530.0 264.8,525.7 255.0,516.0 C 245.2,506.3 226.3,489.5 212.0,480.0 C 197.7,470.5 188.8,470.3 169.0,459.0 C 149.2,447.7 112.0,425.3 93.0,412.0 C 74.0,398.7 65.2,389.5 55.0,379.0 C 44.8,368.5 38.0,359.7 32.0,349.0 C 26.0,338.3 21.5,327.3 19.0,315.0 C 16.5,302.7 16.2,287.8 17.0,275.0 C 17.8,262.2 20.3,250.3 24.0,238.0 C 27.7,225.7 33.0,211.5 39.0,201.0 C 45.0,190.5 52.8,182.3 60.0,175.0 C 67.2,167.7 73.0,162.5 82.0,157.0 C 91.0,151.5 103.7,145.7 114.0,142.0 C 124.3,138.3 127.3,136.2 144.0,135.0 C 160.7,133.8 181.0,131.7 214.0,135.0 C 247.0,138.3 313.2,151.8 342.0,155.0 C 370.8,158.2 374.8,155.7 387.0,154.0 C 399.2,152.3 406.3,148.5 415.0,145.0 C 423.7,141.5 432.2,137.2 439.0,133.0 C 445.8,128.8 448.8,127.0 456.0,120.0 C 463.2,113.0 474.5,102.7 482.0,91.0 C 489.5,79.3 497.0,61.3 501.0,50.0 C 505.0,38.7 505.2,31.3 506.0,23.0 C 506.8,14.7 540.5,3.8 506.0,0.0 Z" fill="#BDA891" fill-rule="evenodd" shape-rendering="geometricPrecision"/>
</svg>